# xmcd CD database file
# Copyright (C) 1993-1997  Ti Kan
#
# Track frame offsets:
#	150
#	21417
#	36405
#	52502
#	72350
#	94402
#	108445
#	127715
#	151992
#	171545
#	187365
#
# Disc length: 2779 seconds
#
# Revision: 1
# Processed by: cddbd v1.4b41PL1 Copyright (c) Steve Scherf et al.
# Submitted via: xmcd 2.1 PL1
#
DISCID=980ad90b
DTITLE=Charles White Band - High Livin'
DYEAR=1900
DGENRE=
TTITLE0=Texas Man
TTITLE1=Pink Champagne
TTITLE2=The Keeper
TTITLE3=High Livin'
TTITLE4=Last Night
TTITLE5=Tears Everyday
TTITLE6=Headlock
TTITLE7=Ain't Too Proud To Beg/In The Midnight Hour
TTITLE8=Come Back Home
TTITLE9=Fever
TTITLE10=Got The Blues
EXTD=1992 White Hot Records CD 10011001\n\nCharles White: Vocals\nBill B
EXTD=lackstone: Alto Sax, Flute\nBill Gerdes: Bass, Rhythm Guitar\nRolf
EXTD=Larson: Keyboards, Harmonica, Backing Vocals\nScott Lind: Electr
EXTD=ic Guitar, Slide Guitar, Acoustic Guitar\nGary Pelfrey: Drums\nJoh
EXTD=n Savage: Baritone Sax\n\nEntry: Mike Lempriere  mikel@speakeasy.o
EXTD=rg  09-Jan-1997\n
EXTT0=
EXTT1=
EXTT2=
EXTT3=
EXTT4=
EXTT5=
EXTT6=
EXTT7=
EXTT8=
EXTT9=
EXTT10=
PLAYORDER=
